<svg width="48" height="48" viewBox="0 0 48 48" fill="none" xmlns="http://www.w3.org/2000/svg">
<rect x="0.405762" y="0.956787" width="46.9502" height="46.9502" rx="4" fill="#383838"/>
<path d="M14.4969 34.7679C12.4995 34.7679 10.7729 34.4132 9.31686 33.7039C7.87953 32.9759 6.76886 31.9772 5.98486 30.7079C5.20086 29.4199 4.80886 27.9359 4.80886 26.2559C4.80886 24.5946 5.09819 23.0452 5.67686 21.6079C6.27419 20.1706 7.10486 18.9292 8.16886 17.8839C9.25153 16.8199 10.5302 15.9892 12.0049 15.3919C13.4982 14.7946 15.1595 14.4959 16.9889 14.4959C18.7435 14.4959 20.2929 14.7946 21.6369 15.3919C22.9809 15.9892 23.9982 16.8479 24.6889 17.9679L21.4129 20.6559C20.9089 19.9092 20.2649 19.3399 19.4809 18.9479C18.6969 18.5559 17.7635 18.3599 16.6809 18.3599C15.5795 18.3599 14.5809 18.5559 13.6849 18.9479C12.7889 19.3212 12.0142 19.8626 11.3609 20.5719C10.7262 21.2626 10.2409 22.0746 9.90486 23.0079C9.56886 23.9412 9.40086 24.9306 9.40086 25.9759C9.40086 26.9652 9.61553 27.8332 10.0449 28.5799C10.4742 29.3079 11.0995 29.8772 11.9209 30.2879C12.7422 30.6986 13.7315 30.9039 14.8889 30.9039C15.8969 30.9039 16.8395 30.7266 17.7169 30.3719C18.5942 29.9986 19.3875 29.4199 20.0969 28.6359L22.7849 31.3799C21.7582 32.5746 20.5355 33.4426 19.1169 33.9839C17.7169 34.5066 16.1769 34.7679 14.4969 34.7679ZM34.6219 34.7679C32.6245 34.7679 30.8979 34.4132 29.4419 33.7039C28.0045 32.9759 26.8939 31.9772 26.1099 30.7079C25.3259 29.4199 24.9339 27.9359 24.9339 26.2559C24.9339 24.5946 25.2232 23.0452 25.8019 21.6079C26.3992 20.1706 27.2299 18.9292 28.2939 17.8839C29.3765 16.8199 30.6552 15.9892 32.1299 15.3919C33.6232 14.7946 35.2845 14.4959 37.1139 14.4959C38.8685 14.4959 40.4179 14.7946 41.7619 15.3919C43.1059 15.9892 44.1232 16.8479 44.8139 17.9679L41.5379 20.6559C41.0339 19.9092 40.3899 19.3399 39.6059 18.9479C38.8219 18.5559 37.8885 18.3599 36.8059 18.3599C35.7045 18.3599 34.7059 18.5559 33.8099 18.9479C32.9139 19.3212 32.1392 19.8626 31.4859 20.5719C30.8512 21.2626 30.3659 22.0746 30.0299 23.0079C29.6939 23.9412 29.5259 24.9306 29.5259 25.9759C29.5259 26.9652 29.7405 27.8332 30.1699 28.5799C30.5992 29.3079 31.2245 29.8772 32.0459 30.2879C32.8672 30.6986 33.8565 30.9039 35.0139 30.9039C36.0219 30.9039 36.9645 30.7266 37.8419 30.3719C38.7192 29.9986 39.5125 29.4199 40.2219 28.6359L42.9099 31.3799C41.8832 32.5746 40.6605 33.4426 39.2419 33.9839C37.8419 34.5066 36.3019 34.7679 34.6219 34.7679Z" fill="#FEFEFE"/>
</svg>
