<svg width="48" height="48" viewBox="0 0 48 48" fill="none" xmlns="http://www.w3.org/2000/svg">
<rect x="0.405762" y="0.274902" width="46.9502" height="46.9502" rx="4" fill="#1A202C"/>
<path d="M14.4969 34.086C12.4995 34.086 10.7729 33.7313 9.31686 33.022C7.87953 32.294 6.76886 31.2953 5.98486 30.026C5.20086 28.738 4.80886 27.254 4.80886 25.574C4.80886 23.9127 5.09819 22.3633 5.67686 20.926C6.27419 19.4887 7.10486 18.2473 8.16886 17.202C9.25153 16.138 10.5302 15.3073 12.0049 14.71C13.4982 14.1127 15.1595 13.814 16.9889 13.814C18.7435 13.814 20.2929 14.1127 21.6369 14.71C22.9809 15.3073 23.9982 16.166 24.6889 17.286L21.4129 19.974C20.9089 19.2273 20.2649 18.658 19.4809 18.266C18.6969 17.874 17.7635 17.678 16.6809 17.678C15.5795 17.678 14.5809 17.874 13.6849 18.266C12.7889 18.6393 12.0142 19.1807 11.3609 19.89C10.7262 20.5807 10.2409 21.3927 9.90486 22.326C9.56886 23.2593 9.40086 24.2487 9.40086 25.294C9.40086 26.2833 9.61553 27.1513 10.0449 27.898C10.4742 28.626 11.0995 29.1953 11.9209 29.606C12.7422 30.0167 13.7315 30.222 14.8889 30.222C15.8969 30.222 16.8395 30.0447 17.7169 29.69C18.5942 29.3167 19.3875 28.738 20.0969 27.954L22.7849 30.698C21.7582 31.8927 20.5355 32.7607 19.1169 33.302C17.7169 33.8247 16.1769 34.086 14.4969 34.086ZM34.6219 34.086C32.6245 34.086 30.8979 33.7313 29.4419 33.022C28.0045 32.294 26.8939 31.2953 26.1099 30.026C25.3259 28.738 24.9339 27.254 24.9339 25.574C24.9339 23.9127 25.2232 22.3633 25.8019 20.926C26.3992 19.4887 27.2299 18.2473 28.2939 17.202C29.3765 16.138 30.6552 15.3073 32.1299 14.71C33.6232 14.1127 35.2845 13.814 37.1139 13.814C38.8685 13.814 40.4179 14.1127 41.7619 14.71C43.1059 15.3073 44.1232 16.166 44.8139 17.286L41.5379 19.974C41.0339 19.2273 40.3899 18.658 39.6059 18.266C38.8219 17.874 37.8885 17.678 36.8059 17.678C35.7045 17.678 34.7059 17.874 33.8099 18.266C32.9139 18.6393 32.1392 19.1807 31.4859 19.89C30.8512 20.5807 30.3659 21.3927 30.0299 22.326C29.6939 23.2593 29.5259 24.2487 29.5259 25.294C29.5259 26.2833 29.7405 27.1513 30.1699 27.898C30.5992 28.626 31.2245 29.1953 32.0459 29.606C32.8672 30.0167 33.8565 30.222 35.0139 30.222C36.0219 30.222 36.9645 30.0447 37.8419 29.69C38.7192 29.3167 39.5125 28.738 40.2219 27.954L42.9099 30.698C41.8832 31.8927 40.6605 32.7607 39.2419 33.302C37.8419 33.8247 36.3019 34.086 34.6219 34.086Z" fill="#FEFEFE"/>
</svg>
